<svg width="18" height="17" viewBox="0 0 18 17" fill="none" xmlns="http://www.w3.org/2000/svg">
<path d="M5.67997 13.694C5.35778 13.694 5.04283 13.7895 4.77495 13.9685C4.50706 14.1475 4.29826 14.4019 4.17497 14.6996C4.05167 14.9973 4.01941 15.3248 4.08227 15.6408C4.14512 15.9568 4.30027 16.2471 4.52809 16.4749C4.75591 16.7027 5.04617 16.8578 5.36217 16.9207C5.67816 16.9835 6.0057 16.9513 6.30336 16.828C6.60102 16.7047 6.85544 16.4959 7.03443 16.228C7.21343 15.9601 7.30897 15.6452 7.30897 15.323C7.3099 15.1088 7.26839 14.8966 7.18686 14.6985C7.10532 14.5005 6.98536 14.3205 6.83391 14.1691C6.68246 14.0176 6.50251 13.8976 6.30445 13.8161C6.1064 13.7346 5.89415 13.6931 5.67997 13.694ZM0.792969 0.660995V2.29H2.42197L5.34997 8.468L4.24997 10.468C4.11918 10.7094 4.05045 10.9795 4.04997 11.254C4.04997 11.4679 4.0921 11.6797 4.17397 11.8774C4.25583 12.075 4.37583 12.2546 4.52709 12.4059C4.67836 12.5571 4.85794 12.6771 5.05558 12.759C5.25322 12.8409 5.46504 12.883 5.67897 12.883H15.454V11.25H6.02697C5.97393 11.25 5.92305 11.2289 5.88555 11.1914C5.84804 11.1539 5.82697 11.103 5.82697 11.05C5.82578 11.0151 5.83407 10.9805 5.85097 10.95L6.57997 9.622H12.648C12.9387 9.62154 13.2239 9.54355 13.4744 9.39607C13.7249 9.24859 13.9315 9.03695 14.073 8.783L16.985 3.497C17.0517 3.37757 17.0862 3.24281 17.085 3.106C17.0851 2.99893 17.0641 2.89289 17.0232 2.79395C16.9823 2.69501 16.9223 2.60512 16.8466 2.52941C16.7709 2.4537 16.681 2.39368 16.582 2.35277C16.4831 2.31185 16.377 2.29086 16.27 2.291H4.22597L3.45297 0.660995H0.792969ZM13.826 13.694C13.5038 13.694 13.1888 13.7895 12.9209 13.9685C12.6531 14.1475 12.4443 14.4019 12.321 14.6996C12.1977 14.9973 12.1654 15.3248 12.2283 15.6408C12.2911 15.9568 12.4463 16.2471 12.6741 16.4749C12.9019 16.7027 13.1922 16.8578 13.5082 16.9207C13.8242 16.9835 14.1517 16.9513 14.4494 16.828C14.747 16.7047 15.0014 16.4959 15.1804 16.228C15.3594 15.9601 15.455 15.6452 15.455 15.323C15.4559 15.1088 15.4144 14.8966 15.3329 14.6985C15.2513 14.5005 15.1314 14.3205 14.9799 14.1691C14.8285 14.0176 14.6485 13.8976 14.4505 13.8161C14.2524 13.7346 14.0402 13.6931 13.826 13.694Z" fill="#4A6585"/>
</svg>
