<svg width="24" height="24" viewBox="0 0 24 24" fill="none" xmlns="http://www.w3.org/2000/svg">
<path d="M17.836 9.78325C17.5949 8.57065 16.9832 7.46281 16.0855 6.61272C15.1878 5.76263 14.0483 5.21221 12.8244 5.03747C11.6005 4.86273 10.3525 5.0723 9.25273 5.63722C8.153 6.20215 7.25579 7.09456 6.68498 8.19125C5.46797 8.32117 4.34724 8.91326 3.55403 9.84537C2.76082 10.7775 2.35564 11.9785 2.42209 13.2006C2.48854 14.4227 3.02155 15.5727 3.91114 16.4134C4.80074 17.254 5.97906 17.7211 7.20298 17.7182H17.553C18.5821 17.7186 19.5713 17.3195 20.312 16.605C21.0526 15.8905 21.4871 14.9163 21.5238 13.8878C21.5605 12.8593 21.1965 11.8567 20.5086 11.0913C19.8207 10.3258 18.8625 9.85723 17.836 9.78425V9.78325ZM15.961 12.1442L11.979 16.1252L7.99798 12.1442H10.387V8.95925H13.572V12.1442H15.961Z" fill="#0097C2"/>
</svg>
