<svg width="68" height="85" viewBox="0 0 68 85" fill="none" xmlns="http://www.w3.org/2000/svg">
<path opacity="0.24" d="M20.227 71.31C18.8936 71.31 17.5901 71.7054 16.4813 72.4462C15.3726 73.187 14.5085 74.24 13.9982 75.4719C13.4879 76.7039 13.3544 78.0595 13.6145 79.3673C13.8747 80.6751 14.5168 81.8764 15.4597 82.8193C16.4026 83.7622 17.6039 84.4043 18.9117 84.6644C20.2195 84.9246 21.5751 84.7911 22.8071 84.2808C24.039 83.7705 25.0919 82.9063 25.8328 81.7976C26.5736 80.6889 26.969 79.3854 26.969 78.052C26.973 77.1655 26.8013 76.287 26.4639 75.4672C26.1265 74.6475 25.63 73.9027 25.0032 73.2758C24.3763 72.649 23.6315 72.1525 22.8117 71.8151C21.992 71.4777 21.1135 71.306 20.227 71.31ZM0 17.371V24.113H6.742L18.862 49.684L14.311 57.943C13.7703 58.9421 13.4865 60.0599 13.485 61.196C13.4849 62.0814 13.6592 62.9581 13.9979 63.7762C14.3367 64.5942 14.8333 65.3375 15.4594 65.9636C16.0855 66.5897 16.8288 67.0863 17.6468 67.425C18.4648 67.7638 19.3416 67.9381 20.227 67.938H60.682V61.197H21.66C21.549 61.198 21.4389 61.177 21.3361 61.135C21.2334 61.093 21.14 61.0309 21.0615 60.9524C20.983 60.874 20.921 60.7806 20.879 60.6778C20.837 60.5751 20.8159 60.465 20.817 60.354C20.8148 60.2142 20.8493 60.0763 20.917 59.954L23.934 54.454H49.051C50.2544 54.4524 51.4356 54.1298 52.4727 53.5195C53.5098 52.9092 54.3653 52.0332 54.951 50.982L67 29.103C67.2786 28.6094 67.4237 28.0517 67.421 27.485C67.4211 27.0422 67.334 26.6038 67.1647 26.1948C66.9953 25.7857 66.747 25.4141 66.4339 25.101C66.1209 24.788 65.7492 24.5397 65.3402 24.3703C64.9311 24.2009 64.4927 24.1138 64.05 24.114H14.21L11.007 17.371H0ZM53.939 71.31C52.6056 71.31 51.3021 71.7054 50.1933 72.4462C49.0846 73.187 48.2205 74.24 47.7102 75.4719C47.1999 76.7039 47.0664 78.0595 47.3265 79.3673C47.5867 80.6751 48.2288 81.8764 49.1717 82.8193C50.1146 83.7622 51.3159 84.4043 52.6237 84.6644C53.9315 84.9246 55.2871 84.7911 56.5191 84.2808C57.751 83.7705 58.8039 82.9063 59.5448 81.7976C60.2856 80.6889 60.681 79.3854 60.681 78.052C60.685 77.1655 60.5133 76.287 60.1759 75.4672C59.8385 74.6475 59.342 73.9027 58.7152 73.2758C58.0883 72.649 57.3435 72.1525 56.5237 71.8151C55.704 71.4777 54.8255 71.306 53.939 71.31Z" fill="#00244D"/>
<path opacity="0.24" d="M56.712 4.51701L53.683 3.25401L52.42 0.226013C52.3864 0.158383 52.3346 0.101479 52.2703 0.0617027C52.2061 0.0219263 52.1321 0.000854492 52.0565 0.000854492C51.981 0.000854492 51.907 0.0219263 51.8428 0.0617027C51.7785 0.101479 51.7267 0.158383 51.693 0.226013L50.43 3.25501L47.401 4.51701C47.3337 4.55092 47.2771 4.60286 47.2376 4.66704C47.1981 4.73122 47.1771 4.80513 47.1771 4.88051C47.1771 4.9559 47.1981 5.0298 47.2376 5.09398C47.2771 5.15816 47.3337 5.2101 47.401 5.24401L50.43 6.50701L51.692 9.53601C51.7257 9.60364 51.7775 9.66054 51.8418 9.70032C51.906 9.7401 51.98 9.76117 52.0555 9.76117C52.1311 9.76117 52.2051 9.7401 52.2693 9.70032C52.3336 9.66054 52.3854 9.60364 52.419 9.53601L53.682 6.50701L56.711 5.24401C56.7784 5.2101 56.835 5.15816 56.8745 5.09398C56.914 5.0298 56.935 4.9559 56.935 4.88051C56.935 4.80513 56.914 4.73122 56.8745 4.66704C56.835 4.60286 56.7784 4.55092 56.711 4.51701H56.712Z" fill="#00244D"/>
<path opacity="0.24" d="M29.888 11.222L28.624 8.194C28.5905 8.12611 28.5386 8.06895 28.4743 8.02898C28.41 7.98901 28.3358 7.96783 28.26 7.96783C28.1843 7.96783 28.1101 7.98901 28.0458 8.02898C27.9815 8.06895 27.9296 8.12611 27.896 8.194L26.634 11.222L23.605 12.485C23.5375 12.5188 23.4806 12.5708 23.4409 12.6351C23.4012 12.6993 23.3801 12.7734 23.3801 12.849C23.3801 12.9246 23.4012 12.9987 23.4409 13.0629C23.4806 13.1272 23.5375 13.1792 23.605 13.213L26.634 14.476L27.897 17.504C27.9306 17.5719 27.9825 17.6291 28.0468 17.669C28.1111 17.709 28.1853 17.7302 28.261 17.7302C28.3368 17.7302 28.411 17.709 28.4753 17.669C28.5396 17.6291 28.5915 17.5719 28.625 17.504L29.888 14.476L32.916 13.213C32.9836 13.1792 33.0405 13.1272 33.0802 13.0629C33.1199 12.9987 33.141 12.9246 33.141 12.849C33.141 12.7734 33.1199 12.6993 33.0802 12.6351C33.0405 12.5708 32.9836 12.5188 32.916 12.485L29.888 11.222Z" fill="#00244D"/>
</svg>
