<svg width="13" height="16" viewBox="0 0 13 16" fill="none" xmlns="http://www.w3.org/2000/svg">
<path d="M11.375 16H1.625C1.19745 16.0029 0.786213 15.8361 0.48155 15.5361C0.176888 15.2361 0.00369863 14.8275 0 14.4L0 7.18H13V14.4C12.996 14.8275 12.8228 15.2359 12.5182 15.5358C12.2136 15.8357 11.8025 16.0027 11.375 16ZM3.25 9.2V13.2H4.875V9.2H3.25ZM0 5.607V1.6C0.00369863 1.17246 0.176888 0.763855 0.48155 0.463879C0.786213 0.163903 1.19745 -0.00293015 1.625 -1.9732e-07L11.375 0.0079998C11.8042 0.00596918 12.217 0.173017 12.524 0.473C12.675 0.61926 12.7949 0.794431 12.8767 0.988061C12.9585 1.18169 13.0004 1.38981 13 1.6V5.6L0 5.607ZM3.25 1.6V4H4.875V1.6H3.25Z" fill="#4A6585"/>
</svg>
