<svg width="36" height="34" viewBox="0 0 36 34" fill="none" xmlns="http://www.w3.org/2000/svg">
<path d="M33.5121 15.6831H3.13705C2.93575 15.6831 2.7427 15.7631 2.60036 15.9054C2.45802 16.0478 2.37805 16.2408 2.37805 16.4421V30.1141C2.37805 30.6132 2.47634 31.1073 2.66731 31.5683C2.85828 32.0294 3.13818 32.4483 3.49104 32.8011C3.84391 33.154 4.26282 33.4339 4.72385 33.6249C5.18489 33.8158 5.67903 33.9141 6.17805 33.9141H30.4781C31.4859 33.9141 32.4524 33.5138 33.1651 32.8011C33.8777 32.0885 34.2781 31.122 34.2781 30.1141V16.4421C34.2781 16.3419 34.2582 16.2426 34.2196 16.15C34.181 16.0575 34.1245 15.9735 34.0533 15.9029C33.9821 15.8324 33.8976 15.7766 33.8047 15.7389C33.7118 15.7011 33.6123 15.6822 33.5121 15.6831Z" fill="#FFC107"/>
<path d="M3.13701 8.08618H33.512C34.1162 8.08618 34.6956 8.32619 35.1228 8.7534C35.55 9.1806 35.79 9.76002 35.79 10.3642V14.9202C35.79 15.5243 35.55 16.1038 35.1228 16.531C34.6956 16.9582 34.1162 17.1982 33.512 17.1982H3.13701C2.53337 17.1982 1.9544 16.9586 1.52728 16.532C1.10016 16.1055 0.859806 15.5268 0.859011 14.9232V10.3672C0.858616 10.0678 0.917248 9.77123 1.03155 9.49451C1.14586 9.21778 1.31359 8.96631 1.52516 8.75446C1.73673 8.54261 1.98799 8.37454 2.26456 8.25987C2.54114 8.1452 2.83761 8.08618 3.13701 8.08618Z" fill="#FFD54F"/>
<path d="M18.324 9.60709C16.5271 9.6003 14.7797 9.01746 13.3385 7.94418C11.8973 6.87089 10.8383 5.36374 10.317 3.64409C10.2074 3.25586 10.2033 2.84543 10.3052 2.45509C10.407 2.06475 10.611 1.70861 10.8963 1.42336C11.1815 1.13812 11.5376 0.934073 11.928 0.832254C12.3183 0.730434 12.7288 0.734521 13.117 0.844092C14.8378 1.36434 16.3462 2.42291 17.4207 3.86418C18.4951 5.30546 19.0788 7.05342 19.086 8.85109C19.0856 8.95077 19.0656 9.04939 19.0271 9.14132C18.9886 9.23326 18.9323 9.31671 18.8616 9.38691C18.7908 9.45711 18.7069 9.51269 18.6147 9.55047C18.5224 9.58824 18.4237 9.60749 18.324 9.60709ZM11.774 3.20709C12.16 4.48233 12.9082 5.61796 13.9276 6.47595C14.9469 7.33394 16.1936 7.87734 17.516 8.04009C17.3535 6.7172 16.8101 5.47003 15.9519 4.45027C15.0937 3.43051 13.9577 2.68211 12.682 2.29609C12.5561 2.26425 12.4241 2.26565 12.2989 2.30014C12.1737 2.33463 12.0596 2.40104 11.9678 2.49287C11.8759 2.58469 11.8095 2.69879 11.775 2.82399C11.7406 2.94919 11.7391 3.08119 11.771 3.20709H11.774Z" fill="#F44336"/>
<path d="M18.3239 9.60814C18.1226 9.60814 17.9296 9.52817 17.7872 9.38583C17.6449 9.24349 17.5649 9.05044 17.5649 8.84914C17.5721 7.05146 18.1558 5.30351 19.2303 3.86223C20.3047 2.42095 21.8132 1.36239 23.5339 0.842139C23.9222 0.732568 24.3326 0.728481 24.7229 0.8303C25.1133 0.93212 25.4694 1.13616 25.7547 1.42141C26.0399 1.70666 26.244 2.0628 26.3458 2.45314C26.4476 2.84348 26.4435 3.2539 26.3339 3.64214C25.813 5.36283 24.7538 6.871 23.3119 7.94491C21.8701 9.01881 20.1218 9.6018 18.3239 9.60814ZM24.1589 2.26914C24.0935 2.2692 24.0285 2.27898 23.9659 2.29814C22.6905 2.68401 21.5547 3.43212 20.6965 4.45149C19.8383 5.47087 19.2948 6.71761 19.1319 8.04014C20.4547 7.87716 21.7016 7.33332 22.721 6.47476C23.7404 5.61621 24.4884 4.47993 24.8739 3.20414C24.9092 3.07822 24.9092 2.94505 24.8739 2.81914C24.8386 2.69323 24.7695 2.57943 24.6739 2.49014C24.5381 2.35153 24.353 2.27212 24.1589 2.26914Z" fill="#F44336"/>
<path d="M13.768 14.1641C13.6169 14.1652 13.4688 14.1212 13.3429 14.0377C13.2169 13.9542 13.1188 13.835 13.061 13.6954C13.0032 13.5557 12.9884 13.402 13.0185 13.2539C13.0486 13.1058 13.1222 12.9701 13.23 12.8641L17.786 8.3081C17.9259 8.1633 18.1176 8.08 18.3189 8.07653C18.5202 8.07306 18.7147 8.14971 18.8595 8.28961C19.0043 8.42951 19.0876 8.6212 19.091 8.82252C19.0945 9.02384 19.0179 9.2183 18.878 9.3631L18.859 9.38211L14.303 13.9381C14.1616 14.0814 13.9692 14.1627 13.768 14.1641Z" fill="#F44336"/>
<path d="M19.0839 8.08911H17.5649V33.9081H19.0839V8.08911Z" fill="#F44336"/>
<path d="M22.88 14.164C22.7801 14.1642 22.6812 14.1447 22.5889 14.1067C22.4966 14.0686 22.4127 14.0126 22.342 13.942L17.786 9.38603C17.6436 9.24361 17.5636 9.05044 17.5636 8.84903C17.5636 8.64762 17.6436 8.45446 17.786 8.31203C17.9284 8.16961 18.1216 8.0896 18.323 8.0896C18.5244 8.0896 18.7176 8.16961 18.86 8.31203L23.416 12.868C23.5236 12.9739 23.5972 13.1095 23.6274 13.2574C23.6575 13.4053 23.6429 13.5588 23.5854 13.6984C23.5278 13.8379 23.43 13.9571 23.3044 14.0408C23.1787 14.1245 23.031 14.1688 22.88 14.168V14.164Z" fill="#F44336"/>
</svg>
