<svg width="24" height="24" viewBox="0 0 24 24" fill="none" xmlns="http://www.w3.org/2000/svg">
<path opacity="0.16" d="M20 0H4C1.79086 0 0 1.79086 0 4V20C0 22.2091 1.79086 24 4 24H20C22.2091 24 24 22.2091 24 20V4C24 1.79086 22.2091 0 20 0Z" fill="#2CBFAE"/>
<path d="M18.0001 12C18.0048 13.5863 17.3793 15.1096 16.2611 16.2348C15.1428 17.36 13.6234 17.995 12.0371 18H12.0041C10.9283 18.0019 9.87179 17.7146 8.94518 17.1681C8.01857 16.6216 7.25593 15.836 6.73713 14.8936C6.21832 13.9512 5.96243 12.8866 5.99625 11.8114C6.03007 10.7361 6.35237 9.68976 6.92937 8.78182C7.50638 7.87388 8.31687 7.13778 9.27599 6.65058C10.2351 6.16338 11.3076 5.94301 12.3811 6.01255C13.4546 6.08209 14.4897 6.43897 15.378 7.04583C16.2662 7.65269 16.975 8.4872 17.4301 9.46199C17.8072 10.2548 18.002 11.122 18.0001 12Z" fill="#2CBFAE"/>
</svg>
