<svg width="16" height="20" viewBox="0 0 16 20" fill="none" xmlns="http://www.w3.org/2000/svg">
<path d="M1.27306 17.6218C1.27292 17.902 1.328 18.1794 1.43513 18.4384C1.54227 18.6973 1.69936 18.9325 1.89744 19.1307C2.09552 19.3289 2.33071 19.4861 2.58956 19.5933C2.84841 19.7006 3.12586 19.7558 3.40605 19.7558H11.9421C12.2223 19.7559 12.4999 19.7008 12.7589 19.5936C13.0178 19.4864 13.2531 19.3292 13.4513 19.131C13.6495 18.9329 13.8067 18.6976 13.9139 18.4386C14.0211 18.1796 14.0762 17.9021 14.0761 17.6218V4.82178H1.27605L1.27306 17.6218ZM15.1441 1.62178H11.4061L10.3421 0.550781H5.00605L3.94005 1.61778H0.206055V3.75078H15.1441V1.62178Z" fill="#DC1C6A"/>
</svg>
